<?xml version="1.0" standalone="no"?>
<!DOCTYPE svg PUBLIC "-//W3C//DTD SVG 20010904//EN"
 "http://www.w3.org/TR/2001/REC-SVG-20010904/DTD/svg10.dtd">
<svg version="1.0" xmlns="http://www.w3.org/2000/svg"
 width="50.000000pt" height="50.000000pt" viewBox="0 0 50.000000 50.000000"
 preserveAspectRatio="xMidYMid meet">
<metadata>
Created by potrace 1.15, written by Peter Selinger 2001-2017
</metadata>
<g transform="translate(0.000000,50.000000) scale(0.100000,-0.100000)"
fill="#000000" stroke="none">
<path d="M269 371 c-22 -17 -24 -28 -27 -119 -4 -92 -2 -101 20 -126 12 -15
32 -27 43 -26 11 0 39 0 63 1 l42 0 0 75 0 74 -40 0 -41 0 7 -49 c4 -31 2 -51
-5 -55 -8 -5 -11 22 -11 93 0 61 4 101 10 101 6 0 10 -13 10 -30 0 -28 3 -30
35 -30 33 0 35 2 35 34 0 65 -88 100 -141 57z"/>
<path d="M70 356 c0 -18 6 -25 23 -28 21 -3 22 -7 25 -115 l3 -113 34 0 35 0
0 115 c0 108 1 115 20 115 15 0 20 7 20 25 0 25 -1 25 -80 25 -78 0 -80 -1
-80 -24z"/>
</g>
</svg>
